<mxfile host="app.diagrams.net" modified="2023-06-17T10:15:29.136Z" agent="Mozilla/5.0 (Windows NT 10.0; Win64; x64) AppleWebKit/537.36 (KHTML, like Gecko) Chrome/114.0.0.0 Safari/537.36" etag="7YQWvvxe3YFN75KbvaQ1" version="21.4.0" type="device">
  <diagram name="Pagina-1" id="rq8_ZpK8CWb6Rov4cxF6">
    <mxGraphModel dx="2150" dy="955" grid="1" gridSize="10" guides="1" tooltips="1" connect="1" arrows="1" fold="1" page="1" pageScale="1" pageWidth="827" pageHeight="1169" math="0" shadow="0">
      <root>
        <mxCell id="0" />
        <mxCell id="1" parent="0" />
        <mxCell id="oChDVzHdopVQnyHylLtt-1" value="" style="group" vertex="1" connectable="0" parent="1">
          <mxGeometry x="100" y="320" width="650" height="280" as="geometry" />
        </mxCell>
        <mxCell id="whEA6oNRr_4cYqzZEE1z-1" value="&lt;br&gt;Client" style="verticalAlign=top;align=center;spacingTop=8;spacingLeft=2;spacingRight=12;shape=cube;size=10;direction=south;fontStyle=4;html=1;whiteSpace=wrap;" parent="oChDVzHdopVQnyHylLtt-1" vertex="1">
          <mxGeometry width="650" height="280" as="geometry" />
        </mxCell>
        <mxCell id="whEA6oNRr_4cYqzZEE1z-2" value="«process»&lt;br&gt;&lt;b&gt;UI&amp;nbsp;&lt;br&gt;&lt;/b&gt;&lt;b style=&quot;border-color: var(--border-color);&quot;&gt;ltspice2circuitikz&lt;/b&gt;&lt;b&gt;&lt;br&gt;&amp;nbsp;&lt;/b&gt;" style="html=1;dropTarget=0;whiteSpace=wrap;" parent="oChDVzHdopVQnyHylLtt-1" vertex="1">
          <mxGeometry x="10" y="111.25" width="150" height="70" as="geometry" />
        </mxCell>
        <mxCell id="whEA6oNRr_4cYqzZEE1z-3" value="" style="shape=module;jettyWidth=8;jettyHeight=4;" parent="whEA6oNRr_4cYqzZEE1z-2" vertex="1">
          <mxGeometry x="1" width="20" height="20" relative="1" as="geometry">
            <mxPoint x="-27" y="7" as="offset" />
          </mxGeometry>
        </mxCell>
        <mxCell id="whEA6oNRr_4cYqzZEE1z-5" value="«process»&lt;b style=&quot;border-color: var(--border-color);&quot;&gt;&lt;br&gt;ltspice2circuitikz.jar&lt;/b&gt;" style="html=1;dropTarget=0;whiteSpace=wrap;" parent="oChDVzHdopVQnyHylLtt-1" vertex="1">
          <mxGeometry x="240" y="111.25" width="140" height="70" as="geometry" />
        </mxCell>
        <mxCell id="whEA6oNRr_4cYqzZEE1z-6" value="" style="shape=module;jettyWidth=8;jettyHeight=4;" parent="whEA6oNRr_4cYqzZEE1z-5" vertex="1">
          <mxGeometry x="1" width="20" height="20" relative="1" as="geometry">
            <mxPoint x="-27" y="7" as="offset" />
          </mxGeometry>
        </mxCell>
        <mxCell id="whEA6oNRr_4cYqzZEE1z-11" value="" style="endArrow=open;startArrow=none;endFill=0;startFill=0;endSize=8;html=1;verticalAlign=bottom;dashed=1;labelBackgroundColor=none;rounded=0;exitX=1;exitY=0.5;exitDx=0;exitDy=0;entryX=0;entryY=0.5;entryDx=0;entryDy=0;" parent="oChDVzHdopVQnyHylLtt-1" source="whEA6oNRr_4cYqzZEE1z-2" target="whEA6oNRr_4cYqzZEE1z-5" edge="1">
          <mxGeometry width="160" relative="1" as="geometry">
            <mxPoint x="360" y="260" as="sourcePoint" />
            <mxPoint x="360" y="213" as="targetPoint" />
          </mxGeometry>
        </mxCell>
        <mxCell id="whEA6oNRr_4cYqzZEE1z-16" value="&amp;lt;&amp;lt;start&amp;gt;&amp;gt;" style="edgeLabel;html=1;align=center;verticalAlign=middle;resizable=0;points=[];" parent="whEA6oNRr_4cYqzZEE1z-11" vertex="1" connectable="0">
          <mxGeometry x="-0.2922" relative="1" as="geometry">
            <mxPoint x="12" as="offset" />
          </mxGeometry>
        </mxCell>
        <mxCell id="whEA6oNRr_4cYqzZEE1z-12" value="" style="endArrow=open;startArrow=none;endFill=0;startFill=0;endSize=8;html=1;verticalAlign=bottom;dashed=1;labelBackgroundColor=none;rounded=0;exitX=1;exitY=0.5;exitDx=0;exitDy=0;entryX=0;entryY=0.5;entryDx=0;entryDy=0;" parent="oChDVzHdopVQnyHylLtt-1" source="whEA6oNRr_4cYqzZEE1z-5" target="whEA6oNRr_4cYqzZEE1z-13" edge="1">
          <mxGeometry width="160" relative="1" as="geometry">
            <mxPoint x="420" y="145.95999999999998" as="sourcePoint" />
            <mxPoint x="490" y="145.95999999999998" as="targetPoint" />
          </mxGeometry>
        </mxCell>
        <mxCell id="whEA6oNRr_4cYqzZEE1z-17" value="&amp;lt;&amp;lt;start&amp;gt;&amp;gt;" style="edgeLabel;html=1;align=center;verticalAlign=middle;resizable=0;points=[];" parent="whEA6oNRr_4cYqzZEE1z-12" vertex="1" connectable="0">
          <mxGeometry x="-0.1838" y="-1" relative="1" as="geometry">
            <mxPoint as="offset" />
          </mxGeometry>
        </mxCell>
        <mxCell id="whEA6oNRr_4cYqzZEE1z-13" value="«process»&lt;b style=&quot;border-color: var(--border-color);&quot;&gt;&lt;br&gt;pdflatex&lt;/b&gt;" style="html=1;dropTarget=0;whiteSpace=wrap;" parent="oChDVzHdopVQnyHylLtt-1" vertex="1">
          <mxGeometry x="460" y="111.25" width="160" height="70" as="geometry" />
        </mxCell>
        <mxCell id="whEA6oNRr_4cYqzZEE1z-14" value="" style="shape=module;jettyWidth=8;jettyHeight=4;" parent="whEA6oNRr_4cYqzZEE1z-13" vertex="1">
          <mxGeometry x="1" width="20" height="20" relative="1" as="geometry">
            <mxPoint x="-27" y="7" as="offset" />
          </mxGeometry>
        </mxCell>
        <mxCell id="whEA6oNRr_4cYqzZEE1z-4" value="&amp;lt;&amp;lt;device&amp;gt;&amp;gt;" style="text;html=1;strokeColor=none;fillColor=none;align=center;verticalAlign=middle;whiteSpace=wrap;rounded=0;" parent="oChDVzHdopVQnyHylLtt-1" vertex="1">
          <mxGeometry x="290" width="60" height="37.5" as="geometry" />
        </mxCell>
        <mxCell id="whEA6oNRr_4cYqzZEE1z-21" value="&amp;lt;&amp;lt;artifact&amp;gt;&amp;gt;&lt;br&gt;&lt;br&gt;&lt;b&gt;circuit.pdf&lt;/b&gt;" style="html=1;align=center;verticalAlign=middle;dashed=0;whiteSpace=wrap;" parent="oChDVzHdopVQnyHylLtt-1" vertex="1">
          <mxGeometry x="480" y="20" width="120" height="60" as="geometry" />
        </mxCell>
        <mxCell id="whEA6oNRr_4cYqzZEE1z-22" value="" style="endArrow=open;startArrow=none;endFill=0;startFill=0;endSize=8;html=1;verticalAlign=bottom;dashed=1;labelBackgroundColor=none;rounded=0;exitX=0.5;exitY=0;exitDx=0;exitDy=0;entryX=0.5;entryY=1;entryDx=0;entryDy=0;" parent="oChDVzHdopVQnyHylLtt-1" source="whEA6oNRr_4cYqzZEE1z-13" target="whEA6oNRr_4cYqzZEE1z-21" edge="1">
          <mxGeometry width="160" relative="1" as="geometry">
            <mxPoint x="690" y="240" as="sourcePoint" />
            <mxPoint x="690" y="191" as="targetPoint" />
          </mxGeometry>
        </mxCell>
        <mxCell id="whEA6oNRr_4cYqzZEE1z-15" value="&amp;lt;&amp;lt;artifact&amp;gt;&amp;gt;&lt;br&gt;&lt;br&gt;&lt;b&gt;circuit.asc&lt;/b&gt;" style="html=1;align=center;verticalAlign=middle;dashed=0;whiteSpace=wrap;" parent="oChDVzHdopVQnyHylLtt-1" vertex="1">
          <mxGeometry x="250" y="210" width="120" height="60" as="geometry" />
        </mxCell>
        <mxCell id="whEA6oNRr_4cYqzZEE1z-18" value="" style="endArrow=open;startArrow=none;endFill=0;startFill=0;endSize=8;html=1;verticalAlign=bottom;dashed=1;labelBackgroundColor=none;rounded=0;exitX=0.5;exitY=0;exitDx=0;exitDy=0;entryX=0.5;entryY=1;entryDx=0;entryDy=0;" parent="oChDVzHdopVQnyHylLtt-1" source="whEA6oNRr_4cYqzZEE1z-15" target="whEA6oNRr_4cYqzZEE1z-5" edge="1">
          <mxGeometry width="160" relative="1" as="geometry">
            <mxPoint x="210" y="230" as="sourcePoint" />
            <mxPoint x="340" y="180" as="targetPoint" />
          </mxGeometry>
        </mxCell>
        <mxCell id="whEA6oNRr_4cYqzZEE1z-19" value="&amp;lt;&amp;lt;artifact&amp;gt;&amp;gt;&lt;br&gt;&lt;br&gt;&lt;b&gt;circuit.tex&lt;/b&gt;" style="html=1;align=center;verticalAlign=middle;dashed=0;whiteSpace=wrap;" parent="oChDVzHdopVQnyHylLtt-1" vertex="1">
          <mxGeometry x="480" y="210" width="120" height="60" as="geometry" />
        </mxCell>
        <mxCell id="whEA6oNRr_4cYqzZEE1z-20" value="" style="endArrow=open;startArrow=none;endFill=0;startFill=0;endSize=8;html=1;verticalAlign=bottom;dashed=1;labelBackgroundColor=none;rounded=0;exitX=0.5;exitY=0;exitDx=0;exitDy=0;entryX=0.5;entryY=1;entryDx=0;entryDy=0;" parent="oChDVzHdopVQnyHylLtt-1" source="whEA6oNRr_4cYqzZEE1z-19" target="whEA6oNRr_4cYqzZEE1z-13" edge="1">
          <mxGeometry width="160" relative="1" as="geometry">
            <mxPoint x="647" y="230" as="sourcePoint" />
            <mxPoint x="577" y="181" as="targetPoint" />
          </mxGeometry>
        </mxCell>
      </root>
    </mxGraphModel>
  </diagram>
</mxfile>
